<svg width="127" height="84" viewBox="0 0 127 84" fill="none" xmlns="http://www.w3.org/2000/svg">
<path fill-rule="evenodd" clip-rule="evenodd" d="M50.1305 49.0072C59.7327 49.0072 67.4961 56.8233 67.4961 66.4907C67.4961 76.1581 59.7327 83.9743 50.1305 83.9743C40.5283 83.9743 32.7649 76.1581 32.7649 66.4907C32.7649 56.8233 40.5283 49.0072 50.1305 49.0072ZM65.7085 43.6335C66.6278 43.8649 67.5472 44.0706 68.4666 44.2506C69.6668 44.5077 70.8671 44.6877 72.0929 44.842C73.1655 44.9705 74.2892 45.0219 75.3617 44.8677C76.0257 44.7134 76.6897 44.6106 77.3537 44.482C78.273 44.3277 79.1924 43.9678 80.0351 43.5821C80.98 43.145 81.8483 42.528 82.6655 41.8595C82.6911 41.7566 82.7421 41.6281 82.7932 41.5252C83.0231 40.9339 83.304 40.3425 83.636 39.7769C84.0956 39.0055 84.683 38.2599 85.2448 37.5914C85.9854 36.7172 86.7515 35.8431 87.5432 35.0203C88.3093 34.2233 89.1266 33.4262 89.9948 32.7063C90.6077 32.1921 91.3739 31.6264 92.1145 31.2922H92.14C92.9061 30.9837 94.1575 30.598 94.9492 31.0865C95.5365 31.4465 95.843 31.9864 95.9196 32.6549C95.9451 32.8349 95.9451 33.0148 95.9451 33.2205L97.3497 31.4465C97.4519 31.3179 97.5795 31.2665 97.7328 31.2665L98.8564 31.3179C99.0352 31.3179 99.1629 31.4207 99.265 31.575C99.3416 31.7293 99.3416 31.8835 99.265 32.0378C98.9841 32.552 98.7032 33.0663 98.3967 33.5548C98.0903 34.0947 97.7838 34.6346 97.4519 35.2003C97.0688 35.8431 96.7113 36.5115 96.3793 37.1543C96.3793 37.1543 96.3793 37.18 96.3537 37.18C95.7919 38.0542 95.2556 38.9541 94.7193 39.854C94.183 40.7282 93.6467 41.6281 93.1615 42.5537C92.804 43.2222 92.4465 43.9421 92.2422 44.6877C92.2166 44.7905 92.1145 45.1248 92.1655 45.279C92.5231 45.4076 92.9828 45.0734 93.2381 44.8934C93.9532 44.3534 94.5916 43.685 95.1535 43.0165C95.8174 42.2708 96.4048 41.4738 96.9666 40.651C96.9922 40.5739 97.0433 40.4968 97.0688 40.4196C97.3497 39.8283 97.7838 39.2626 98.1669 38.7484C98.7287 38.0028 99.3161 37.2829 99.929 36.5887C100.619 35.7916 101.334 35.0203 102.074 34.2747C102.789 33.5548 103.555 32.8606 104.373 32.2692C105.062 31.755 105.803 31.3179 106.62 31.0094C107.284 30.7523 108.024 30.6494 108.688 30.9322C109.199 31.1636 109.531 31.6007 109.633 32.1664C109.684 32.4492 109.71 32.7577 109.71 33.0663C111.115 31.1122 112.519 29.1582 113.898 27.1784C114.588 26.2014 115.303 25.2244 115.992 24.2473C116.605 23.3732 117.244 22.499 117.856 21.6248C118.316 20.9563 118.801 20.3135 119.287 19.6708C119.465 19.4136 119.797 19.028 119.925 18.7452V18.7194C120.231 18.1795 120.742 17.7167 121.381 18.0252C122.07 18.3595 121.942 19.1308 121.687 19.7222C121.687 19.7479 121.662 19.7736 121.636 19.7993L106.926 42.6051C106.62 43.0422 106.339 43.5307 106.109 44.0192C105.956 44.3277 105.854 44.6877 105.828 45.0219C105.828 45.1248 105.803 45.2533 105.905 45.3048C105.93 45.3048 105.93 45.3305 105.956 45.3305C106.109 45.4333 106.262 45.3562 106.39 45.279C106.748 45.0734 107.08 44.842 107.412 44.5591C107.82 44.1735 108.229 43.7621 108.612 43.3507L110.144 41.2424C110.297 40.9339 110.451 40.6253 110.655 40.3682C111.625 39.1084 112.57 37.8228 113.541 36.5373C114.281 35.5859 115.022 34.6089 115.762 33.6576C116.248 32.9891 116.733 32.3463 117.218 31.6779C117.218 31.6521 117.244 31.6521 117.244 31.6264C117.473 31.3693 117.78 31.0351 118.086 30.8808C118.418 30.7008 118.801 30.7265 119.057 31.0351C119.261 31.2922 119.287 31.6007 119.236 31.9093C119.184 32.2178 119.082 32.5006 118.929 32.7577C118.904 32.7834 118.904 32.8091 118.878 32.8091C118.776 32.9377 118.674 33.1177 118.572 33.2719C118.367 33.6062 118.163 33.9661 117.984 34.3004C117.422 35.3031 116.835 36.3059 116.222 37.2829C115.584 38.3628 114.92 39.4169 114.23 40.4453C113.694 41.2938 113.158 42.1423 112.723 43.0422C112.468 43.5821 112.162 44.2506 112.11 44.8677C112.085 45.2019 112.213 45.4076 112.494 45.5362C112.57 45.5619 112.698 45.5104 112.774 45.4847C113.03 45.3819 113.285 45.2019 113.49 45.0476C113.822 44.7905 114.128 44.5077 114.409 44.2249C114.741 43.8906 115.073 43.5307 115.405 43.1707C116.248 42.2194 117.065 41.2424 117.831 40.2397C118.623 38.8513 119.414 37.4886 120.257 36.1259C120.589 35.5859 120.947 35.0203 121.304 34.4804C121.636 33.9661 121.968 33.4519 122.326 32.9377C122.632 32.5006 122.938 32.0635 123.296 31.6521C123.551 31.3436 123.858 31.0351 124.164 30.7523C124.547 30.418 125.135 30.0323 125.671 30.2895C125.824 30.3666 125.926 30.4694 126.003 30.6237C126.361 31.2151 126.08 31.8321 125.671 32.2949C125.416 32.6035 125.16 32.8863 124.93 33.1948C124.624 33.5805 124.318 33.9661 124.037 34.3518C123.756 34.7375 123.5 35.1231 123.27 35.5345C123.092 35.8431 122.913 36.203 122.811 36.5373V36.563C122.709 36.8458 122.581 37.1286 122.453 37.4114C122.249 37.8742 122.045 38.337 121.84 38.7998C121.585 39.3912 121.33 39.9825 121.049 40.5739C120.768 41.2167 120.461 41.8852 120.155 42.5022C119.644 43.685 119.108 44.842 118.572 45.999C119.057 45.6647 119.516 45.3048 119.976 44.9191C120.947 44.122 121.84 43.2222 122.683 42.2966C123.781 41.0881 124.701 39.7254 125.543 38.337C125.671 38.1313 125.926 38.0542 126.156 38.1571L126.718 38.4142C126.846 38.4656 126.948 38.5684 126.973 38.7227C127.025 38.8513 126.999 39.0055 126.922 39.1084C125.85 40.7796 124.649 42.4508 123.296 43.9164C122.351 44.9448 121.33 45.9732 120.231 46.8217C119.363 47.4902 118.418 48.133 117.397 48.5444C116.912 49.4442 116.426 50.3184 115.89 51.1926C120.742 53.9951 122.504 60.0887 122.504 65.848H100.874C100.874 70.0903 101.385 73.7413 103.223 76.7752C104.883 79.3977 107.692 81.0175 110.808 81.0175C116.554 81.0175 119.619 77.0323 120.691 74.7954L122.53 75.7467C119.082 82.046 114.051 83.3829 110.399 83.3829H110.093C101.359 83.3829 95.5365 77.9322 95.5365 65.7194C95.5365 57.3633 100.133 49.5985 109.378 49.5985C110.246 49.5985 111.063 49.6756 111.855 49.8042C112.366 49.4442 112.877 49.11 113.413 48.7758L115.047 45.7676C114.46 46.2046 113.77 46.6417 113.081 46.8474C112.391 47.0788 111.676 47.1045 111.012 46.8474C110.348 46.616 109.838 46.1789 109.582 45.4847C109.48 45.2019 109.429 44.9191 109.378 44.6363C109.25 44.7648 109.123 44.9191 109.02 45.0476C108.433 45.6647 107.692 46.3589 106.901 46.6932C106.313 46.9246 105.701 47.0531 105.088 46.8988C104.577 46.7703 104.143 46.5132 103.785 46.1275C103.428 45.7418 103.223 45.2533 103.096 44.7648C103.096 44.7134 103.07 44.662 103.07 44.6106C102.789 44.9448 102.483 45.2533 102.151 45.5619C101.563 46.0761 100.899 46.4875 100.184 46.7703C99.3672 47.1045 98.55 47.0531 97.7583 46.7189C97.2475 46.4875 96.89 46.1018 96.6602 45.5876C96.4048 45.0734 96.3027 44.5077 96.2771 43.9421C95.9451 44.3277 95.5876 44.7134 95.2301 45.0734C94.5916 45.7418 93.8 46.4103 92.9061 46.7189C92.1911 47.0017 91.2973 47.2074 90.6333 46.6932C90.1736 46.3332 89.8416 45.8447 89.7139 45.2533C89.6373 44.9705 89.6118 44.7134 89.5862 44.4306C89.2287 44.7905 88.8456 45.1248 88.4626 45.4333C87.8752 45.9218 87.2368 46.3332 86.5472 46.6417C85.8577 46.9503 85.1171 47.0788 84.3765 46.8731C83.6615 46.6674 83.0486 46.2561 82.6911 45.5619C82.4868 45.1248 82.3591 44.662 82.308 44.1992C82.2825 44.1992 82.2825 44.2249 82.2569 44.2249C80.7247 45.2019 78.937 45.8447 77.1749 46.2818C75.2085 46.7703 73.191 47.0274 71.148 47.0531C69.2838 47.0788 67.4451 47.0274 65.5808 46.8474C63.7165 46.6674 61.8778 46.4103 60.0647 46.0504C58.2259 46.7189 56.3362 47.2588 54.4208 47.6445C53.5781 47.8244 52.7098 47.953 51.8671 48.0816C50.9732 48.2101 50.0794 48.2615 49.1856 48.2872C48.2918 48.313 47.4235 48.2615 46.5297 48.1587C45.6869 48.0558 44.8697 47.8759 44.1036 47.5673C43.4141 47.3102 42.5458 46.9246 42.0606 46.3332C41.6775 45.8704 41.4732 45.3305 41.6009 44.7648C41.7031 44.2506 41.984 43.8135 42.367 43.4536C42.7246 43.0936 43.1332 42.8108 43.5928 42.5794C43.5928 42.5794 43.6184 42.5794 43.6184 42.5537C44.5122 42.168 45.4571 41.9109 46.4275 41.7309C47.4746 41.5252 48.5216 41.4224 49.5687 41.3709C50.6413 41.3195 51.7394 41.3195 52.812 41.3709C53.859 41.4224 54.9316 41.4738 55.9786 41.6023C58.3792 41.8595 60.7542 42.2966 63.1036 42.8365C64.023 42.3737 64.9168 41.8595 65.7596 41.2681C66.6279 40.651 67.4706 39.9054 68.2367 39.1598C68.8752 38.5427 69.4115 37.8485 69.8967 37.1029C67.9047 37.4371 65.8873 37.6171 63.8442 37.5143C62.8738 37.4629 61.9034 37.36 60.9329 37.2057C59.937 37.0258 58.9921 36.7429 58.0472 36.3573C57.1023 35.9716 56.2595 35.4317 55.4934 34.7889C54.7784 34.1718 54.191 33.4262 53.7313 32.6292C51.5351 32.8349 49.3133 32.732 47.1426 32.2949C46.1466 32.0892 45.1762 31.8321 44.2313 31.4979C43.1842 31.1122 42.1883 30.6237 41.2434 30.0581C40.2474 29.441 39.3281 28.6954 38.4853 27.8726C37.566 26.9727 36.8254 25.9186 36.1869 24.7873C35.1654 22.9875 34.4759 21.0077 34.3737 18.9251C34.2971 17.0996 34.4504 15.2484 34.9356 13.4744C35.3442 11.9831 35.9315 10.4919 36.7998 9.18061C37.3106 8.38357 38.0256 7.32941 38.7662 6.73806C39.277 6.30097 39.7877 5.81246 40.2729 5.34966C41.2178 4.47548 42.2904 3.70414 43.3885 3.03565C44.7931 2.16148 46.3509 1.46728 47.9087 0.901631C49.773 0.233141 51.7904 -0.02397 53.7569 0.00174114C56.1574 0.0531634 58.941 0.361697 61.1117 1.44156C62.5674 2.18719 64.0485 3.16421 65.0445 4.50119C65.9128 5.6839 66.5002 6.96946 66.7555 8.40928C68.2623 7.97219 69.8201 7.66366 71.3779 7.5351C72.7569 7.40655 74.1359 7.45797 75.515 7.74079C76.9195 8.02361 78.0432 8.76924 78.8093 10.0034C78.8093 10.0034 78.8093 10.0034 78.8093 10.0291C79.4733 11.2118 79.8308 12.4974 79.7798 13.86C79.7542 15.2227 79.4478 16.534 78.9115 17.7681C78.3497 19.0794 77.6346 20.2878 76.7919 21.3934C75.9746 22.499 75.0553 23.5274 74.0338 24.4273C71.8886 26.2528 69.5136 27.9497 66.9854 29.2096C65.1211 30.1352 63.1292 31.0094 61.1117 31.575C59.5794 32.0121 57.9961 32.3463 56.4128 32.4749C57.0768 33.3234 57.9195 33.9919 58.8899 34.5061C60.269 35.2517 62.0311 35.6117 63.5633 35.7916C65.9639 36.1002 68.7219 35.5859 71.0714 35.0203C72.6547 32.2692 74.3147 29.5953 76.1023 26.9727C76.8685 25.8414 77.6601 24.7358 78.4773 23.6303C79.2945 22.499 80.1628 21.4191 81.0311 20.3392C81.8739 19.3108 82.7421 18.3338 83.6615 17.4082C84.4532 16.6111 85.3214 15.8398 86.2408 15.1713C86.2408 15.1713 86.2663 15.1713 86.2663 15.1456C87.4155 14.4257 88.6924 13.7315 89.9948 13.3715C90.8631 13.1144 91.9357 12.9602 92.7529 13.4487C93.5957 13.9629 93.6978 15.0428 93.5957 15.9426C93.4424 17.3825 92.5742 19.0794 91.8591 20.3135C91.5782 20.9049 91.144 21.5477 90.7865 22.0619C90.1736 22.9618 89.4841 23.836 88.7946 24.6844C87.9263 25.7643 86.9814 26.7927 86.0365 27.7955C84.9894 28.9011 83.8658 29.9552 82.6911 30.9322C81.4908 31.935 80.2394 32.8349 78.9115 33.6319C77.6601 34.4032 76.3577 35.0203 74.9531 35.4574C73.7784 36.7687 72.5526 38.0285 71.2757 39.2112C70.1776 40.2397 69.0029 41.191 67.8281 42.1423C67.2152 42.6822 66.4746 43.2222 65.7085 43.6335ZM114.332 53.738C113.847 54.4579 113.362 55.1778 112.851 55.872C112.315 56.6176 111.778 57.3119 111.191 58.0061C110.629 58.6745 110.042 59.3173 109.429 59.9344C108.867 60.4743 108.28 61.0143 107.616 61.4513C107.028 61.8627 106.211 62.3512 105.471 62.4027C104.909 62.4541 104.347 62.2998 103.99 61.837C103.658 61.3999 103.581 60.86 103.606 60.3458C103.658 59.7801 103.785 59.2145 103.99 58.7003C104.577 57.2347 105.42 55.9235 106.441 54.7407C107.335 53.738 108.254 52.7867 109.276 51.8868C106.084 51.9639 101.334 54.3551 100.899 63.6368H117.422C117.448 60.8343 116.963 56.2577 114.332 53.738ZM52.7353 30.7523C52.5055 30.1095 52.3523 29.441 52.2246 28.7725C52.0203 27.6926 52.0203 26.5613 52.1224 25.4558C52.2246 24.1445 52.5566 22.8332 52.9907 21.5991C53.5015 20.1078 54.2676 18.6937 55.1359 17.3825C56.0297 15.9684 57.1023 14.7342 58.3792 13.6544C59.4773 12.7288 60.652 11.8546 61.8778 11.0832C63.027 10.3633 64.2273 9.69484 65.4531 9.12919C65.2488 8.38357 64.9679 7.63795 64.5593 6.96946C64.1507 6.27526 63.6655 5.63248 63.1036 5.09255C62.5674 4.57832 62.0055 4.14123 61.3671 3.75557C60.7542 3.39561 60.1157 3.08708 59.4773 2.80425C57.945 2.2129 56.3106 1.93008 54.6762 1.87865H54.6507C53.1184 1.69868 51.5861 1.82723 50.105 2.13576C48.5472 2.4443 47.0149 3.03565 45.5592 3.72986C43.7205 4.62974 42.0606 5.99243 40.6305 7.45797C40.6305 7.45797 40.6305 7.45797 40.6049 7.48368C39.2259 8.76924 38.0767 10.2605 37.4127 12.0603C36.8509 13.6029 36.4934 15.2484 36.4423 16.894C36.3912 18.3338 36.5189 19.7736 36.902 21.1877C37.1829 22.1904 37.5149 23.296 38.0256 24.1959C38.5875 25.1215 39.2514 25.9957 40.0431 26.7413C40.7837 27.4355 41.5754 28.0526 42.4436 28.5668C43.2609 29.0553 44.1036 29.441 44.9719 29.7495C45.8146 30.0323 46.6574 30.2895 47.5001 30.4437C49.2111 30.7523 50.9732 30.8551 52.7353 30.7523ZM67.0109 10.569C66.9343 12.0088 66.6789 13.5258 65.9894 14.7856C65.4531 15.7627 64.8147 16.714 63.9975 17.4596C63.1547 18.2052 62.1843 18.7709 61.0862 19.0794C60.8308 19.1565 60.5754 19.028 60.4988 18.7709L60.2945 18.2052C60.2179 17.9738 60.32 17.7167 60.5499 17.6139C61.648 17.1254 62.7972 16.4312 63.5889 15.5056C64.1762 14.8371 64.7125 14.04 65.0445 13.1916C65.2999 12.6002 65.4276 12.0088 65.5042 11.3918C64.8402 11.726 64.2018 12.1117 63.5889 12.5231C62.7206 13.1144 61.8778 13.7572 61.0862 14.4257C60.1157 15.2227 59.273 16.174 58.5069 17.1511C57.2811 18.6937 56.1574 20.4678 55.6211 22.3704C55.2125 23.7845 54.8805 25.3272 54.8805 26.8185C54.8805 28.1297 55.0593 29.4153 55.4423 30.6751C57.6386 30.418 59.8348 29.9038 61.9289 29.2096C62.976 28.8496 64.023 28.4383 65.0445 28.0012C66.1682 27.5127 67.2663 26.947 68.3389 26.3299C69.4881 25.6614 70.5862 24.8901 71.6332 24.0416C72.7569 23.1418 73.7784 22.1647 74.7488 21.1106C75.6682 19.9536 76.5109 18.6937 77.1494 17.331C77.4048 16.8168 77.6346 16.2769 77.8389 15.737C78.0177 15.2484 78.1453 14.7085 78.222 14.1943C78.273 13.7315 78.273 13.243 78.1453 12.7802C78.0432 12.3431 77.8389 11.9574 77.558 11.5975C76.7919 10.6204 75.8214 9.95195 74.5956 9.69484C73.4209 9.43773 72.2206 9.3863 71.0203 9.54057C69.6413 9.69484 68.3133 10.0805 67.0109 10.569ZM57.0257 45.0991C55.9276 44.7391 54.8039 44.4306 53.6547 44.1992C52.4034 43.9421 51.1265 43.7364 49.8496 43.6335C48.9813 43.5564 48.0364 43.505 47.1681 43.5564C46.7084 43.5821 46.2232 43.6078 45.7891 43.685C45.2017 43.8135 44.5888 44.0192 44.1036 44.3534C43.8738 44.5077 43.5673 44.7905 43.5418 45.0734C43.5162 45.3305 43.8227 45.5619 44.0015 45.6647C44.5377 46.0247 45.5337 46.2046 46.1722 46.2818C47.5767 46.4618 48.9813 46.4618 50.3859 46.3332C51.7138 46.2046 53.0418 46.0247 54.3442 45.7418C54.3442 45.7418 54.3442 45.7418 54.3698 45.7418C55.238 45.5619 56.1319 45.3562 57.0257 45.0991ZM76.6386 32.912C77.8134 32.3206 78.937 31.6264 80.0351 30.8808C81.6185 29.7752 83.1252 28.4897 84.5553 27.1784C86.2919 25.5843 87.7731 23.7331 89.101 21.7534C89.433 21.1363 89.7905 20.5192 90.1225 19.9022C90.5311 19.208 90.8887 18.488 91.2207 17.7424C91.476 17.1254 91.7059 16.4569 91.808 15.7884C91.8591 15.4541 91.8591 15.0685 91.6037 14.8371C91.6037 14.8371 91.6037 14.8371 91.5782 14.8114C91.3483 14.58 90.8887 14.7342 90.6333 14.8114C89.8927 15.0685 89.1776 15.557 88.5647 16.0198C87.6964 16.6626 86.9048 17.4339 86.1897 18.2566C85.3725 19.1565 84.6319 20.1593 83.9935 21.1877C83.6104 21.7534 83.2529 22.319 82.8954 22.8846C82.4612 23.5531 82.0271 24.2216 81.6185 24.8901C81.1588 25.61 80.6991 26.3299 80.265 27.0756C79.8308 27.7955 79.3712 28.5154 78.9115 29.2096C78.1453 30.4694 77.3792 31.7036 76.6386 32.912ZM93.9532 35.4831C94.1064 34.9946 94.2341 34.4804 94.3873 33.9919C94.4384 33.6319 94.4895 33.2462 94.515 32.8863C94.515 32.8091 94.515 32.552 94.4895 32.5006C94.3618 32.3978 94.2086 32.3463 94.0553 32.3978C93.8 32.4749 93.5701 32.6035 93.3658 32.7577C93.1104 32.9377 92.8806 33.1691 92.7018 33.4262C92.5231 33.6576 92.3443 33.889 92.1655 34.1204C92.14 34.1461 92.14 34.1718 92.1145 34.1975C91.6293 34.6861 91.144 35.2517 90.7099 35.7916C89.9948 36.6401 89.3309 37.4886 88.6924 38.3885C87.9774 39.3655 87.3134 40.3682 86.7005 41.3709C86.1897 42.2194 85.7045 43.145 85.4491 44.0963C85.3981 44.302 85.1427 45.3305 85.347 45.5104C85.4491 45.5362 85.8067 45.3819 85.9088 45.3305C86.394 45.0991 86.8537 44.7391 87.2878 44.4049C88.0795 43.8135 88.8201 42.9908 89.4585 42.2194C90.2502 41.2681 90.9908 40.2654 91.6803 39.2369C92.3954 38.0028 93.2126 36.7429 93.9532 35.4831ZM107.258 35.9716C107.488 35.3803 107.718 34.7632 107.897 34.1718V34.1461C108.05 33.7347 108.152 33.2977 108.203 32.8606C108.203 32.7577 108.229 32.4235 108.152 32.3463C107.973 32.1921 107.36 32.6549 107.233 32.7577C106.467 33.3748 105.777 34.0947 105.139 34.8403C104.347 35.7402 103.632 36.6915 102.942 37.6685C102.355 38.4913 101.793 39.3398 101.257 40.214C101.257 40.214 101.257 40.2397 101.231 40.2397C100.848 40.8053 100.465 41.3967 100.108 41.988C99.7758 42.5537 99.4438 43.145 99.1629 43.7364C98.9841 44.1478 98.8054 44.6106 98.7543 45.0476C98.7543 45.1248 98.7032 45.2533 98.8053 45.3048C98.8309 45.3048 98.8309 45.3048 98.8564 45.3305C99.1373 45.459 99.4183 45.4076 99.6992 45.279C100.159 45.0734 100.619 44.7391 101.002 44.4049C101.512 43.9678 101.998 43.4536 102.457 42.9393C102.968 42.3737 103.428 41.7566 103.887 41.1396C105.139 39.494 106.237 37.7457 107.258 35.9716ZM111.37 52.1182C111.14 52.2982 110.936 52.4524 110.731 52.6324C109.812 53.4038 108.969 54.2522 108.178 55.1264C107.284 56.1034 106.543 57.1833 105.905 58.3403C105.624 58.8288 105.19 59.6773 105.19 60.2686C105.19 60.3201 105.19 60.6543 105.266 60.68C105.496 60.7571 105.956 60.5 106.135 60.3972C106.722 60.0629 107.258 59.4973 107.692 58.9831C107.922 58.7003 108.152 58.4174 108.331 58.1089C108.612 57.6975 108.867 57.3119 109.123 56.9005C109.403 56.4634 109.684 56.0006 109.965 55.5378C110.246 55.075 110.527 54.6122 110.808 54.1751C111.115 53.6352 111.421 53.1209 111.702 52.5553L111.855 52.2725C111.702 52.1953 111.549 52.1439 111.37 52.1182ZM68.6453 74.3583C69.105 76.6209 69.6413 78.9606 70.101 81.9174C72.8846 83.1773 76.0257 84 80.597 84C87.8497 84 94.0809 80.529 94.0809 74.1012C94.0809 69.3447 89.765 66.0793 85.5002 64.1253C83.9679 63.1226 80.1884 61.9913 77.7878 60.7057C76.0002 59.5744 74.7233 57.9032 74.7233 56.1549C74.7233 52.2725 79.4989 51.1412 82.1548 51.1412C86.726 51.1412 88.8712 52.4782 89.9182 57.8261L91.9102 57.4147C91.3228 54.4836 90.9908 52.2725 90.7099 50.3956C88.1817 49.3928 85.3981 48.8015 81.7972 48.8015C73.4209 48.8015 69.7179 52.6838 69.7179 56.9519C69.7179 59.1631 70.5096 60.9628 71.7098 62.4284C73.5741 64.3567 76.4343 65.4366 79.4222 67.1849C83.0741 68.9847 85.73 69.8589 87.1857 71.3244C88.105 72.4043 88.6413 73.5356 88.6413 75.0782C88.6413 78.3436 85.73 81.7117 80.0607 81.7117C75.3362 81.7117 72.144 80.0405 70.484 73.8184L68.6453 74.3583ZM0 38.5427V40.4453C4.34141 40.4453 4.69894 40.8053 4.69894 45.1248V76.1838C4.69894 80.5547 4.34141 80.9147 0 80.9147V82.8173H14.3777V80.9147C9.98524 80.9147 9.67879 80.6061 9.67879 76.2352V62.2998H15.1439L26.789 82.8173H34.7057V80.9147C31.9221 80.9147 31.0283 80.4262 28.7554 76.6723L20.0216 61.5799C25.7931 60.7314 30.9006 56.7205 30.9006 49.9585C30.9006 46.0761 29.4705 43.325 26.8657 41.3967C23.9033 39.2112 20.5578 38.5427 15.2205 38.5427H0ZM15.0928 40.9339C22.8818 40.9339 25.742 44.8162 25.742 49.8556C25.742 57.3376 21.0431 59.8573 13.918 59.8573H9.67879V44.7134C9.67879 41.4738 9.80648 40.9339 11.2366 40.9339H15.0928ZM60.5754 71.1959C59.988 77.1351 55.0082 81.7888 48.9558 81.7888C42.4947 81.7888 37.2595 76.5181 37.2595 70.0131C37.2595 64.8709 40.5283 60.5257 45.074 58.9059C43.1332 60.7314 41.9074 63.354 41.9074 66.2593C41.9074 71.8129 46.3765 76.3124 51.8926 76.3124C55.6211 76.2867 58.8644 74.2555 60.5754 71.1959ZM50.3348 71.4016C54.2931 72.5071 58.5069 70.4502 60.0391 66.5164C61.648 62.3255 59.605 57.5947 55.4423 55.9749C52.148 54.6893 48.5472 55.7178 46.3765 58.2632C48.0364 57.4661 50.0284 57.3119 51.8671 58.0575C55.4168 59.4459 57.1789 63.4825 55.7999 67.0564C54.855 69.4732 52.7098 71.0673 50.3348 71.4016ZM47.3724 69.7818C44.9974 69.0361 43.5418 66.6193 44.027 64.0996C44.5633 61.4513 47.1426 59.7287 49.773 60.2686C51.8671 60.7057 53.3482 62.4027 53.6292 64.4081C53.0418 63.4568 52.0969 62.7369 50.8966 62.4798C48.6493 62.017 46.4531 63.4825 45.9934 65.7451C45.7125 67.3135 46.2743 68.8047 47.3724 69.7818Z" fill="#222222"/>
</svg>
